<svg width="18" height="18" viewBox="0 0 18 18" fill="none" xmlns="http://www.w3.org/2000/svg">
<path fill-rule="evenodd" clip-rule="evenodd" d="M0 5.5V2C0 0.89543 0.89543 0 2 0H5.5C5.77614 0 6 0.223858 6 0.5V1.5C6 1.77614 5.77614 2 5.5 2H2V5.5C2 5.77614 1.77614 6 1.5 6H0.5C0.223858 6 0 5.77614 0 5.5ZM12.5 0H16C17.1046 0 18 0.89543 18 2V5.5C18 5.77614 17.7761 6 17.5 6H16.5C16.2239 6 16 5.77614 16 5.5V2H12.5C12.2239 2 12 1.77614 12 1.5V0.5C12 0.223858 12.2239 0 12.5 0ZM16 12.5V16H12.5C12.2239 16 12 16.2239 12 16.5V17.5C12 17.7761 12.2239 18 12.5 18H16C17.1046 18 18 17.1046 18 16V12.5C18 12.2239 17.7761 12 17.5 12H16.5C16.2239 12 16 12.2239 16 12.5ZM0.5 12H1.5C1.77614 12 2 12.2239 2 12.5V16H5.5C5.77614 16 6 16.2239 6 16.5V17.5C6 17.7761 5.77614 18 5.5 18H2C0.89543 18 0 17.1046 0 16V12.5C0 12.2239 0.223858 12 0.5 12Z" fill="#5956E0"/>
</svg>
