<svg width="18" height="18" viewBox="0 0 18 18" fill="none" xmlns="http://www.w3.org/2000/svg">
<path fill-rule="evenodd" clip-rule="evenodd" d="M16 2V4C17.1046 4 18 4.89543 18 6V11.5C18 11.7761 17.7761 12 17.5 12H16V16C16 17.1046 15.1046 18 14 18H4C2.89543 18 2 17.1046 2 16V12H0.5C0.223858 12 0 11.7761 0 11.5V6C0 4.89543 0.89543 4 2 4V2C2 0.89543 2.89543 0 4 0H14C15.1046 0 16 0.89543 16 2ZM14 2H4V4H14V2ZM14 16H4V10H14V16ZM15.5 8C15.7761 8 16 7.77614 16 7.5V6.5C16 6.22386 15.7761 6 15.5 6H14.5C14.2239 6 14 6.22386 14 6.5V7.5C14 7.77614 14.2239 8 14.5 8H15.5Z" fill="#5956E0"/>
</svg>
